  <svg version="1.0" xmlns="http://www.w3.org/2000/svg" width="600.000000pt" height="327.000000pt" viewBox="0 0 600.000000 327.000000" preserveAspectRatio="xMidYMid meet" style="width: 637.5px; height: auto;"> <g transform="translate(0.000000,327.000000) scale(0.100000,-0.100000)" fill="#000000" stroke="none">       <path d="M3435 2855 c-5 -2 -22 -6 -37 -9 -26 -6 -38 -29 -20 -40 5 -3 27 0 51 6 60 15 140 -4 175 -42 15 -16 38 -40 50 -53 17 -19 41 -28 97 -37 111 -18 119 -22 110 -62 -21 -91 -58 -122 -164 -137 -97 -14 -116 -28 -138 -105 -7 -25 0 -55 38 -166 61 -174 63 -234 14 -394 -39 -127 -39 -212 0 -356 22 -83 33 -99 82 -115 16 -5 37 -20 45 -33 l14 -22 -64 0 c-54 0 -68 4 -85 23 -20 21 -93 192 -93 216 0 6 -9 11 -20 11 -27 0 -26 -6 20 -123 60 -152 77 -167 195 -167 86 0 94 7 75 65 -13 39 -43 65 -77 65 -63 0 -103 257 -62 395 61 202 60 280 -6 453 -59 156 -43 203 74 215 84 9 133 38 164 96 65 122 47 159 -88 176 -73 9 -98 21 -139 70 -46 56 -150 90 -211 70z" stroke-width="1"></path> <path d="M3284 2792 c-81 -51 -140 -252 -96 -332 44 -79 142 -122 197 -86 45 29 59 71 58 176 -1 189 -71 296 -159 242z m74 -47 c48 -60 64 -260 26 -312 -57 -76 -174 2 -174 117 0 76 80 220 121 220 4 0 16 -11 27 -25z" stroke-width="1"></path> <path d="M2900 2466 c0 -64 -11 -86 -52 -98 -47 -14 -83 -48 -98 -93 -6 -18 -22 -41 -36 -49 -65 -43 -14 -141 89 -171 103 -30 85 -78 -69 -180 -196 -131 -258 -255 -239 -479 6 -73 10 -86 24 -86 16 0 18 13 17 138 -1 203 36 267 234 402 159 109 182 196 63 235 -89 29 -138 90 -88 109 8 3 27 30 41 60 24 50 66 86 101 86 18 0 43 37 43 63 0 68 87 -29 126 -141 32 -91 31 -106 -21 -214 -99 -208 -126 -423 -81 -647 26 -128 42 -146 133 -146 l68 0 3 33 c3 27 -3 39 -34 67 l-37 34 7 73 c4 39 25 128 47 196 31 98 39 138 38 195 0 75 -38 242 -55 242 -16 0 -16 -63 0 -119 27 -93 21 -181 -21 -309 -46 -139 -55 -310 -18 -331 47 -26 45 -46 -3 -46 -55 0 -72 24 -93 133 -49 250 -4 478 145 727 105 175 126 230 88 230 -13 0 -22 -12 -30 -37 -7 -21 -26 -63 -43 -93 l-32 -54 -21 66 c-46 140 -196 297 -196 204z" stroke-width="1"></path>    <path d="M2299 1905 c-30 -16 -44 -44 -30 -58 6 -6 19 -2 37 12 95 75 174 -45 110 -169 -13 -25 -39 -76 -60 -115 -79 -153 -27 -286 124 -315 92 -18 289 -12 335 9 173 78 132 371 -50 359 -59 -4 -54 -31 7 -38 134 -16 163 -205 43 -275 -39 -23 -51 -25 -179 -25 -207 0 -276 39 -276 155 0 46 9 67 91 225 39 74 35 182 -9 221 -37 33 -97 39 -143 14z" stroke-width="1"></path>   <path d="M3232 1780 c-34 -14 -20 -26 39 -33 159 -19 206 -218 75 -320 -22 -18 -49 -36 -59 -42 -38 -21 -20 -30 65 -35 75 -5 91 -9 113 -30 l27 -25 -159 -5 c-140 -4 -158 -7 -161 -22 -4 -23 342 -28 350 -5 20 54 -45 117 -121 117 l-44 0 40 43 c121 132 61 335 -107 361 -19 3 -45 1 -58 -4z" stroke-width="1"></path>                                </g> </svg> 