  <svg version="1.0" xmlns="http://www.w3.org/2000/svg"  width="600.000000pt" height="327.000000pt" viewBox="0 0 600.000000 327.000000"  preserveAspectRatio="xMidYMid meet"> <g transform="translate(0.000000,327.000000) scale(0.100000,-0.100000)" fill="#000000" stroke="none"> <path d="M5378 3263 c12 -2 32 -2 45 0 12 2 2 4 -23 4 -25 0 -35 -2 -22 -4z"/> <path d="M5823 3263 c4 -3 10 -3 14 0 3 4 0 7 -7 7 -7 0 -10 -3 -7 -7z"/> <path d="M5992 3250 c0 -14 2 -19 5 -12 2 6 2 18 0 25 -3 6 -5 1 -5 -13z"/> <path d="M5990 3185 c0 -3 2 -5 5 -5 3 0 5 2 5 5 0 3 -2 5 -5 5 -3 0 -5 -2 -5 -5z"/> <path d="M5950 3105 c0 -3 2 -5 5 -5 3 0 5 2 5 5 0 3 -2 5 -5 5 -3 0 -5 -2 -5 -5z"/> <path d="M5993 3075 c0 -22 2 -30 4 -17 2 12 2 30 0 40 -3 9 -5 -1 -4 -23z"/> <path d="M3435 2855 c-5 -2 -22 -6 -37 -9 -26 -6 -38 -29 -20 -40 5 -3 27 0 51 6 60 15 140 -4 175 -42 15 -16 38 -40 50 -53 17 -19 41 -28 97 -37 111 -18 119 -22 110 -62 -21 -91 -58 -122 -164 -137 -97 -14 -116 -28 -138 -105 -7 -25 0 -55 38 -166 61 -174 63 -234 14 -394 -39 -127 -39 -212 0 -356 22 -83 33 -99 82 -115 16 -5 37 -20 45 -33 l14 -22 -64 0 c-54 0 -68 4 -85 23 -20 21 -93 192 -93 216 0 6 -9 11 -20 11 -27 0 -26 -6 20 -123 60 -152 77 -167 195 -167 86 0 94 7 75 65 -13 39 -43 65 -77 65 -63 0 -103 257 -62 395 61 202 60 280 -6 453 -59 156 -43 203 74 215 84 9 133 38 164 96 65 122 47 159 -88 176 -73 9 -98 21 -139 70 -46 56 -150 90 -211 70z"/> <path d="M3284 2792 c-81 -51 -140 -252 -96 -332 44 -79 142 -122 197 -86 45 29 59 71 58 176 -1 189 -71 296 -159 242z m74 -47 c48 -60 64 -260 26 -312 -57 -76 -174 2 -174 117 0 76 80 220 121 220 4 0 16 -11 27 -25z"/> <path d="M2900 2466 c0 -64 -11 -86 -52 -98 -47 -14 -83 -48 -98 -93 -6 -18 -22 -41 -36 -49 -65 -43 -14 -141 89 -171 103 -30 85 -78 -69 -180 -196 -131 -258 -255 -239 -479 6 -73 10 -86 24 -86 16 0 18 13 17 138 -1 203 36 267 234 402 159 109 182 196 63 235 -89 29 -138 90 -88 109 8 3 27 30 41 60 24 50 66 86 101 86 18 0 43 37 43 63 0 68 87 -29 126 -141 32 -91 31 -106 -21 -214 -99 -208 -126 -423 -81 -647 26 -128 42 -146 133 -146 l68 0 3 33 c3 27 -3 39 -34 67 l-37 34 7 73 c4 39 25 128 47 196 31 98 39 138 38 195 0 75 -38 242 -55 242 -16 0 -16 -63 0 -119 27 -93 21 -181 -21 -309 -46 -139 -55 -310 -18 -331 47 -26 45 -46 -3 -46 -55 0 -72 24 -93 133 -49 250 -4 478 145 727 105 175 126 230 88 230 -13 0 -22 -12 -30 -37 -7 -21 -26 -63 -43 -93 l-32 -54 -21 66 c-46 140 -196 297 -196 204z"/> <path d="M5990 2315 c0 -3 2 -5 5 -5 3 0 5 2 5 5 0 3 -2 5 -5 5 -3 0 -5 -2 -5 -5z"/> <path d="M5993 2110 c0 -25 2 -35 4 -22 2 12 2 32 0 45 -2 12 -4 2 -4 -23z"/> <path d="M5991 1924 c0 -11 3 -14 6 -6 3 7 2 16 -1 19 -3 4 -6 -2 -5 -13z"/> <path d="M2299 1905 c-30 -16 -44 -44 -30 -58 6 -6 19 -2 37 12 95 75 174 -45 110 -169 -13 -25 -39 -76 -60 -115 -79 -153 -27 -286 124 -315 92 -18 289 -12 335 9 173 78 132 371 -50 359 -59 -4 -54 -31 7 -38 134 -16 163 -205 43 -275 -39 -23 -51 -25 -179 -25 -207 0 -276 39 -276 155 0 46 9 67 91 225 39 74 35 182 -9 221 -37 33 -97 39 -143 14z"/> <path d="M5990 1835 c0 -3 2 -5 5 -5 3 0 5 2 5 5 0 3 -2 5 -5 5 -3 0 -5 -2 -5 -5z"/> <path d="M5995 1420 c0 -217 1 -306 2 -197 2 108 2 286 0 395 -1 108 -2 19 -2 -198z"/> <path d="M3232 1780 c-34 -14 -20 -26 39 -33 159 -19 206 -218 75 -320 -22 -18 -49 -36 -59 -42 -38 -21 -20 -30 65 -35 75 -5 91 -9 113 -30 l27 -25 -159 -5 c-140 -4 -158 -7 -161 -22 -4 -23 342 -28 350 -5 20 54 -45 117 -121 117 l-44 0 40 43 c121 132 61 335 -107 361 -19 3 -45 1 -58 -4z"/> <path d="M2160 905 l0 -215 25 0 25 0 2 161 3 161 79 -136 c43 -75 84 -136 91 -136 7 0 48 61 92 136 l78 136 3 -161 2 -161 25 0 25 0 0 215 0 215 -24 0 c-20 0 -36 -21 -101 -134 -42 -74 -82 -141 -88 -150 -11 -15 -25 5 -101 134 -75 127 -92 150 -112 150 l-24 0 0 -215z"/> <path d="M2998 1102 c4 -9 45 -106 91 -215 l85 -197 45 0 46 0 24 63 c13 34 52 127 87 206 76 170 75 163 22 159 l-41 -3 -64 -150 c-35 -82 -66 -152 -69 -154 -8 -9 -21 17 -81 167 l-58 142 -47 0 c-41 0 -46 -2 -40 -18z"/> <path d="M3863 1092 c-19 -3 -23 -10 -23 -38 0 -30 -3 -34 -25 -34 -22 0 -25 -4 -25 -35 0 -31 3 -35 25 -35 25 0 25 -1 25 -89 0 -139 26 -175 121 -174 64 1 81 15 67 54 -9 27 -13 28 -48 23 -50 -8 -60 10 -60 110 l0 75 48 3 c45 3 47 4 47 33 0 29 -2 30 -47 33 -47 3 -48 4 -48 36 0 36 -14 45 -57 38z"/> <path d="M3550 1017 c-141 -47 -166 -235 -41 -305 99 -56 278 -5 213 60 -19 19 -21 19 -43 4 -37 -25 -111 -21 -143 9 -44 41 -35 45 99 45 141 0 143 1 125 68 -26 98 -118 150 -210 119z m111 -87 c42 -41 31 -50 -67 -50 -95 0 -105 10 -53 54 42 35 82 34 120 -4z"/> <path d="M2670 1016 c0 -4 32 -77 70 -163 73 -165 75 -175 35 -213 -24 -22 -28 -23 -61 -11 -36 13 -53 6 -54 -22 0 -20 71 -38 109 -27 49 13 55 22 151 241 90 204 89 199 57 199 -21 0 -31 -16 -76 -122 -30 -68 -56 -126 -60 -130 -3 -4 -31 50 -61 120 -50 115 -58 127 -82 130 -16 2 -28 1 -28 -2z"/> <path d="M5992 930 c0 -14 2 -19 5 -12 2 6 2 18 0 25 -3 6 -5 1 -5 -13z"/> <path d="M2660 480 c0 -27 3 -30 34 -30 l34 0 -19 -50 c-15 -39 -16 -50 -5 -50 11 0 56 96 56 121 0 5 -16 9 -35 9 -24 0 -35 5 -35 15 0 8 -7 15 -15 15 -10 0 -15 -10 -15 -30z"/> <path d="M2872 483 c2 -23 8 -29 36 -31 37 -4 36 -2 17 -49 -18 -43 -19 -53 -2 -53 13 0 59 115 49 124 -3 3 -20 6 -39 6 -23 0 -33 5 -33 15 0 8 -7 15 -16 15 -11 0 -14 -8 -12 -27z"/> <path d="M3200 480 c0 -27 3 -30 30 -30 34 0 36 -4 15 -53 -18 -44 -18 -47 -1 -47 11 0 56 99 56 124 0 3 -16 6 -35 6 -24 0 -35 5 -35 15 0 8 -7 15 -15 15 -10 0 -15 -10 -15 -30z"/> <path d="M3489 505 c-9 -38 -2 -50 29 -53 35 -4 39 -14 17 -52 -18 -32 -19 -50 -1 -50 8 0 22 22 32 53 9 28 19 58 22 65 3 8 -8 12 -37 12 -32 0 -39 3 -35 15 4 9 0 15 -10 15 -9 0 -16 -2 -17 -5z"/> <path d="M3890 480 c0 -28 3 -30 35 -30 l34 0 -14 -41 c-25 -70 -7 -88 21 -21 32 78 31 92 -10 92 -25 0 -36 4 -36 15 0 8 -7 15 -15 15 -10 0 -15 -10 -15 -30z"/> <path d="M1810 465 c0 -11 11 -15 40 -15 l40 0 0 -50 c0 -38 4 -50 15 -50 21 0 21 93 -1 114 -21 21 -94 22 -94 1z"/> <path d="M1940 415 c0 -51 3 -65 15 -65 11 0 15 12 15 50 0 47 2 50 25 50 23 0 25 -3 25 -50 0 -38 4 -50 15 -50 12 0 15 13 15 55 0 62 -13 75 -74 75 l-36 0 0 -65z"/> <path d="M2080 466 c-18 -23 -8 -61 18 -64 12 -2 22 1 22 7 0 6 -4 11 -10 11 -5 0 -10 7 -10 15 0 9 9 15 25 15 22 0 25 -4 25 -34 0 -36 -12 -46 -56 -46 -14 0 -22 -4 -19 -10 10 -16 72 -12 89 6 22 21 20 77 -2 97 -23 21 -65 22 -82 3z"/> <path d="M2197 474 c-4 -4 -5 -16 -2 -28 2 -12 7 -38 10 -58 6 -36 8 -38 44 -38 25 0 44 7 56 20 20 22 34 110 17 110 -12 0 -22 -24 -22 -55 0 -13 -7 -31 -16 -39 -20 -20 -54 -21 -54 -1 0 8 7 15 15 15 15 0 35 37 35 66 0 26 -29 15 -32 -13 -4 -39 -28 -42 -28 -4 0 29 -9 39 -23 25z"/> <path d="M2352 412 c-1 -63 19 -88 26 -31 6 55 13 69 32 69 17 0 20 -7 20 -40 0 -29 -4 -40 -15 -40 -8 0 -15 -4 -15 -10 0 -5 14 -10 30 -10 30 0 30 1 30 54 0 63 -11 76 -67 73 l-40 -1 -1 -64z"/> <path d="M2487 474 c-13 -13 5 -24 39 -24 l34 0 0 -50 c0 -38 4 -50 15 -50 25 0 21 106 -4 120 -22 11 -74 14 -84 4z"/> <path d="M2770 466 c0 -9 12 -16 33 -18 28 -3 32 -6 32 -33 0 -25 -5 -32 -32 -40 -45 -13 -42 -27 4 -23 85 7 76 127 -9 128 -18 0 -28 -5 -28 -14z"/> <path d="M3082 468 c3 -7 19 -14 36 -16 30 -3 32 -6 32 -43 0 -38 -1 -39 -35 -39 -19 0 -35 -4 -35 -10 0 -6 27 -10 60 -10 33 0 60 4 60 10 0 6 -4 10 -10 10 -5 0 -10 16 -10 36 0 56 -15 74 -61 74 -28 0 -39 -4 -37 -12z"/> <path d="M3317 474 c-13 -13 5 -24 39 -24 l34 0 0 -50 c0 -38 4 -50 15 -50 19 0 21 100 3 118 -13 13 -80 17 -91 6z"/> <path d="M3600 465 c0 -10 10 -15 29 -15 53 0 53 -66 0 -77 -16 -3 -29 -9 -29 -14 0 -13 64 -11 78 3 17 17 15 84 -4 102 -20 21 -74 21 -74 1z"/> <path d="M3714 413 c-2 -79 20 -88 30 -12 6 45 9 50 29 47 32 -4 39 -78 8 -78 -12 0 -21 -4 -21 -10 0 -5 16 -10 35 -10 35 0 35 1 35 43 0 63 -21 87 -73 85 l-42 -2 -1 -63z"/> <path d="M4010 415 c0 -49 3 -66 13 -63 8 3 12 25 12 63 0 38 -4 60 -12 62 -10 4 -13 -13 -13 -62z"/> <path d="M4072 468 c-18 -18 -14 -56 7 -68 24 -12 36 3 16 20 -23 19 -18 32 13 28 19 -2 28 -9 30 -26 5 -31 -16 -54 -46 -50 -14 2 -27 -3 -29 -9 -9 -25 74 -16 91 9 42 60 -32 146 -82 96z"/> <path d="M4190 440 c0 -29 4 -40 13 -37 6 2 12 19 12 37 0 18 -6 35 -12 38 -9 2 -13 -9 -13 -38z"/> <path d="M4240 434 c0 -63 13 -84 54 -84 37 0 51 12 61 53 9 33 -17 77 -45 77 -30 0 -34 -19 -6 -30 29 -11 36 -49 12 -69 -27 -23 -46 -2 -46 50 0 37 -4 49 -15 49 -11 0 -15 -12 -15 -46z"/> <path d="M1810 390 c0 -29 4 -40 15 -40 11 0 15 11 15 40 0 29 -4 40 -15 40 -11 0 -15 -11 -15 -40z"/> <path d="M2489 413 c-1 -10 -3 -28 -4 -40 -1 -14 3 -23 11 -23 10 0 14 13 14 40 0 39 -19 58 -21 23z"/> <path d="M3310 390 c0 -29 4 -40 15 -40 11 0 15 11 15 40 0 29 -4 40 -15 40 -11 0 -15 -11 -15 -40z"/> <path d="M1750 365 c0 -8 9 -15 20 -15 11 0 20 7 20 15 0 8 -9 15 -20 15 -11 0 -20 -7 -20 -15z"/> <path d="M3040 349 c0 -38 24 -35 28 4 2 19 -1 27 -12 27 -11 0 -16 -10 -16 -31z"/> </g> </svg> 